REM DIRINDEX 1\2,1\3,1\4,1\5\6,1\5\7,1\8
REM DIRNAME folder01,folder02,folder03,folder04,folder05,folder06,folder07,folder08
TITLE ""
FILE "102 Åy102ÅzUnit6 (1153 wholesome_1164 antiquity).mp3" MP3
  TRACK 01 AUDIO
    TITLE "0:"
    INDEX 01 00:00:00
  TRACK 02 AUDIO
    TITLE "2:cjc115_3982"
    INDEX 01 00:00:07
  TRACK 03 AUDIO
    TITLE "0:"
    INDEX 01 00:01:26
  TRACK 04 AUDIO
    TITLE "3:cjc115_3983"
    INDEX 01 00:01:34
  TRACK 05 AUDIO
    TITLE "0:"
    INDEX 01 00:04:25
  TRACK 06 AUDIO
    TITLE "4:cjc115_3984"
    INDEX 01 00:04:31
  TRACK 07 AUDIO
    TITLE "0:"
    INDEX 01 00:08:42
  TRACK 08 AUDIO
    TITLE "2:cjc115_3985"
    INDEX 01 00:09:53
  TRACK 09 AUDIO
    TITLE "0:"
    INDEX 01 00:11:07
  TRACK 10 AUDIO
    TITLE "3:cjc115_3986"
    INDEX 01 00:11:15
  TRACK 11 AUDIO
    TITLE "0:"
    INDEX 01 00:13:33
  TRACK 12 AUDIO
    TITLE "4:cjc115_3987"
    INDEX 01 00:13:43
  TRACK 13 AUDIO
    TITLE "0:"
    INDEX 01 00:17:31
  TRACK 14 AUDIO
    TITLE "2:cjc115_3988"
    INDEX 01 00:18:41
  TRACK 15 AUDIO
    TITLE "0:"
    INDEX 01 00:19:52
  TRACK 16 AUDIO
    TITLE "3:cjc115_3989"
    INDEX 01 00:19:63
  TRACK 17 AUDIO
    TITLE "0:"
    INDEX 01 00:21:27
  TRACK 18 AUDIO
    TITLE "4:cjc115_3990"
    INDEX 01 00:21:39
  TRACK 19 AUDIO
    TITLE "0:"
    INDEX 01 00:24:47
  TRACK 20 AUDIO
    TITLE "2:cjc115_3991"
    INDEX 01 00:25:48
  TRACK 21 AUDIO
    TITLE "0:"
    INDEX 01 00:27:10
  TRACK 22 AUDIO
    TITLE "3:cjc115_3992"
    INDEX 01 00:27:14
  TRACK 23 AUDIO
    TITLE "0:"
    INDEX 01 00:28:17
  TRACK 24 AUDIO
    TITLE "4:cjc115_3993"
    INDEX 01 00:28:23
  TRACK 25 AUDIO
    TITLE "0:"
    INDEX 01 00:31:02
  TRACK 26 AUDIO
    TITLE "2:cjc115_3994"
    INDEX 01 00:32:11
  TRACK 27 AUDIO
    TITLE "0:"
    INDEX 01 00:33:28
  TRACK 28 AUDIO
    TITLE "3:cjc115_3995"
    INDEX 01 00:33:38
  TRACK 29 AUDIO
    TITLE "0:"
    INDEX 01 00:34:57
  TRACK 30 AUDIO
    TITLE "4:cjc115_3996"
    INDEX 01 00:34:65
  TRACK 31 AUDIO
    TITLE "0:"
    INDEX 01 00:38:33
  TRACK 32 AUDIO
    TITLE "2:cjc115_3997"
    INDEX 01 00:39:43
  TRACK 33 AUDIO
    TITLE "0:"
    INDEX 01 00:40:56
  TRACK 34 AUDIO
    TITLE "3:cjc115_3998"
    INDEX 01 00:40:64
  TRACK 35 AUDIO
    TITLE "0:"
    INDEX 01 00:42:25
  TRACK 36 AUDIO
    TITLE "4:cjc115_3999"
    INDEX 01 00:42:33
  TRACK 37 AUDIO
    TITLE "0:"
    INDEX 01 00:46:02
  TRACK 38 AUDIO
    TITLE "2:cjc115_4000"
    INDEX 01 00:47:11
  TRACK 39 AUDIO
    TITLE "0:"
    INDEX 01 00:48:20
  TRACK 40 AUDIO
    TITLE "3:cjc115_4001"
    INDEX 01 00:48:30
  TRACK 41 AUDIO
    TITLE "0:"
    INDEX 01 00:50:58
  TRACK 42 AUDIO
    TITLE "4:cjc115_4002"
    INDEX 01 00:50:66
  TRACK 43 AUDIO
    TITLE "0:"
    INDEX 01 00:55:10
  TRACK 44 AUDIO
    TITLE "2:cjc115_4003"
    INDEX 01 00:56:20
  TRACK 45 AUDIO
    TITLE "0:"
    INDEX 01 00:57:52
  TRACK 46 AUDIO
    TITLE "3:cjc115_4004"
    INDEX 01 00:57:60
  TRACK 47 AUDIO
    TITLE "0:"
    INDEX 01 00:59:61
  TRACK 48 AUDIO
    TITLE "4:cjc115_4005"
    INDEX 01 01:00:00
  TRACK 49 AUDIO
    TITLE "0:"
    INDEX 01 01:04:52
  TRACK 50 AUDIO
    TITLE "2:cjc115_4006"
    INDEX 01 01:05:60
  TRACK 51 AUDIO
    TITLE "0:"
    INDEX 01 01:07:04
  TRACK 52 AUDIO
    TITLE "3:cjc115_4007"
    INDEX 01 01:07:08
  TRACK 53 AUDIO
    TITLE "0:"
    INDEX 01 01:08:35
  TRACK 54 AUDIO
    TITLE "4:cjc115_4008"
    INDEX 01 01:08:46
  TRACK 55 AUDIO
    TITLE "0:"
    INDEX 01 01:12:24
  TRACK 56 AUDIO
    TITLE "2:cjc115_4009"
    INDEX 01 01:13:36
  TRACK 57 AUDIO
    TITLE "0:"
    INDEX 01 01:14:53
  TRACK 58 AUDIO
    TITLE "3:cjc115_4010"
    INDEX 01 01:14:57
  TRACK 59 AUDIO
    TITLE "0:"
    INDEX 01 01:16:73
  TRACK 60 AUDIO
    TITLE "4:cjc115_4011"
    INDEX 01 01:17:04
  TRACK 61 AUDIO
    TITLE "0:"
    INDEX 01 01:20:51
  TRACK 62 AUDIO
    TITLE "2:cjc115_4012"
    INDEX 01 01:21:61
  TRACK 63 AUDIO
    TITLE "0:"
    INDEX 01 01:23:05
  TRACK 64 AUDIO
    TITLE "3:cjc115_4013"
    INDEX 01 01:23:15
  TRACK 65 AUDIO
    TITLE "0:"
    INDEX 01 01:25:08
  TRACK 66 AUDIO
    TITLE "4:cjc115_4014"
    INDEX 01 01:25:17
  TRACK 67 AUDIO
    TITLE "0:"
    INDEX 01 01:28:65
  TRACK 68 AUDIO
    TITLE "2:cjc115_4015"
    INDEX 01 01:30:01
  TRACK 69 AUDIO
    TITLE "0:"
    INDEX 01 01:31:22
  TRACK 70 AUDIO
    TITLE "3:cjc115_4016"
    INDEX 01 01:31:30
  TRACK 71 AUDIO
    TITLE "0:"
    INDEX 01 01:33:13
  TRACK 72 AUDIO
    TITLE "4:cjc115_4017"
    INDEX 01 01:33:25
  TRACK 73 AUDIO
    TITLE "0:"
    INDEX 01 01:38:14
